<?xml version="1.0" encoding="utf-8"?>
<svg version="1.0" width="490.000000pt" height="182.000000pt" viewBox="0 0 479 175" xmlns="http://www.w3.org/2000/svg">
  <g transform="matrix(0.1, 0, 0, -0.1, -5.879527, 178.404617)" fill="#000000" stroke="none">
    <path d="M159 1757 c-24 -13 -57 -43 -74 -66 l-30 -43 0 -738 0 -738 30 -43 c17 -23 50 -53 74 -66 l44 -23 2247 0 2247 0 44 23 c24 13 58 43 74 66 l30 43 0 738 0 738 -30 43 c-16 23 -50 53 -74 66 l-44 23 -2247 0 -2247 0 -44 -23z m661 -392 c14 -4 36 -14 48 -24 33 -24 46 -124 39 -288 -9 -203 -32 -233 -194 -256 l-72 -11 1 -153 c0 -84 -2 -156 -5 -160 -8 -7 -163 -10 -171 -2 -9 9 -20 808 -12 863 l8 49 166 -6 c92 -3 178 -9 192 -12z m1946 -10 c28 -8 58 -22 65 -31 18 -22 23 -286 12 -596 -8 -197 -11 -230 -27 -247 -25 -28 -121 -36 -264 -23 -113 11 -118 13 -146 43 l-29 33 7 375 c7 340 9 378 27 412 17 35 22 38 76 44 32 3 67 8 78 10 35 6 148 -6 201 -20z m-1439 7 c17 -11 43 -341 51 -649 l7 -242 -50 -6 c-27 -4 -70 -5 -95 -3 l-45 3 -5 132 c-3 72 -7 134 -10 136 -3 3 -30 7 -60 8 l-55 3 -15 -139 -15 -140 -57 -3 c-58 -3 -58 -3 -58 25 1 107 73 760 95 861 5 22 8 22 153 22 81 0 152 -4 159 -8z m463 -51 c0 -32 -3 -73 -6 -90 -6 -30 -9 -31 -55 -31 l-49 0 7 -365 6 -365 -112 0 -112 0 5 68 c3 37 8 203 12 370 l6 302 -39 0 c-68 0 -83 9 -83 45 0 18 3 53 6 79 l7 46 203 0 204 0 0 -59z m361 38 c46 -12 88 -25 93 -29 4 -5 20 -59 35 -122 39 -166 21 -271 -53 -307 l-28 -13 38 -22 c32 -18 41 -30 56 -79 16 -54 17 -67 4 -159 -20 -143 -30 -149 -272 -156 -160 -4 -171 -3 -179 14 -10 22 -20 856 -11 879 9 24 210 21 317 -6z m1167 13 c16 -11 41 -318 51 -642 4 -135 6 -247 5 -249 -2 -2 -43 -6 -92 -9 -107 -6 -102 -13 -102 155 0 61 -3 114 -8 117 -4 2 -32 6 -62 7 l-55 3 -14 -142 -14 -142 -59 0 c-54 0 -58 2 -58 23 1 105 71 737 96 860 l6 27 146 0 c81 0 153 -4 160 -8z m505 -17 c22 -11 47 -36 61 -60 23 -39 24 -44 15 -159 -10 -132 -20 -158 -70 -172 l-33 -10 46 -33 c25 -18 49 -43 52 -55 8 -29 8 -292 0 -349 -4 -25 -12 -47 -18 -49 -6 -2 -41 -2 -78 0 l-68 4 0 127 c0 71 -3 156 -7 190 -6 65 -17 80 -70 96 l-23 6 0 -210 0 -211 -94 0 -95 0 2 456 1 456 170 -4 c144 -3 177 -7 209 -23z m481 5 c61 -19 68 -25 102 -77 l36 -56 5 -202 c8 -263 -12 -422 -61 -496 -17 -26 -40 -50 -51 -53 -11 -3 -95 -6 -187 -6 l-168 0 0 128 c0 70 3 272 7 449 5 282 8 323 22 326 9 3 64 5 122 6 82 1 122 -4 173 -19z"/>
    <path d="M567 1183 c-9 -8 -9 -176 -1 -197 5 -13 22 -16 84 -16 94 0 102 7 103 90 0 68 -21 109 -64 121 -32 9 -114 11 -122 2z"/>
    <path d="M2528 1108 c-2 -13 -2 -125 0 -250 l3 -228 57 0 c31 0 63 4 71 9 10 6 15 62 21 237 10 265 13 254 -86 254 -57 0 -63 -2 -66 -22z"/>
    <path d="M1076 1125 c-3 -27 -7 -96 -8 -153 l-3 -102 63 0 62 0 0 78 c0 42 -7 109 -16 149 l-17 71 -38 4 -38 3 -5 -50z"/>
    <path d="M2005 1218 c-2 -7 -1 -69 3 -138 l7 -125 30 3 c53 6 74 37 85 131 12 92 10 99 -44 125 -41 19 -75 21 -81 4z"/>
    <path d="M2010 828 c-1 -2 -3 -47 -5 -100 -4 -89 -3 -99 15 -108 53 -28 99 30 85 108 -15 87 -24 102 -61 102 -19 0 -34 -1 -34 -2z"/>
    <path d="M3066 1131 c-3 -24 -6 -93 -6 -152 l0 -109 60 0 60 0 0 78 c0 42 -7 109 -16 149 l-17 71 -38 4 c-37 3 -37 3 -43 -41z"/>
    <path d="M3567 1256 c-3 -8 -3 -71 0 -141 l6 -126 41 7 c67 11 76 21 76 85 0 79 -17 162 -37 177 -23 17 -80 15 -86 -2z"/>
    <path d="M4086 1128 c-3 -40 -7 -167 -8 -283 l-3 -210 59 -3 c32 -2 63 1 69 7 13 13 37 244 37 364 0 54 -5 118 -11 142 -12 46 -29 55 -104 55 l-33 0 -6 -72z"/>
  </g>
</svg>